<svg width="79" height="24" viewBox="0 0 78 24" fill="none" xmlns="http://www.w3.org/2000/svg">
<g clip-path="url(#clip0_1_495)">
<path d="M13 19C8.58175 19 5.00003 15.4183 5.00003 11C5.00003 6.58172 8.58175 3 13 3C17.4183 3 21 6.58172 21 11C21 15.4183 17.4183 19 13 19Z" stroke="#4C5866" stroke-width="2" stroke-linecap="round" stroke-linejoin="round"/>
<path d="M2.99998 20.9999L7.34998 16.6499" stroke="#4C5866" stroke-width="2" stroke-linecap="round" stroke-linejoin="round"/>
</g>
<g clip-path="url(#clip1_1_495)">
<path d="M69 3H73C73.5304 3 74.0391 3.21071 74.4142 3.58579C74.7893 3.96086 75 4.46957 75 5V19C75 19.5304 74.7893 20.0391 74.4142 20.4142C74.0391 20.7893 73.5304 21 73 21H69" stroke="#4C5866" stroke-width="2" stroke-linecap="round" stroke-linejoin="round"/>
<path d="M64 17L69 12L64 7" stroke="#4C5866" stroke-width="2" stroke-linecap="round" stroke-linejoin="round"/>
<path d="M69 12H57" stroke="#4C5866" stroke-width="2" stroke-linecap="round" stroke-linejoin="round"/>
</g>
<defs>
<clipPath id="clip0_1_495">
<rect width="24" height="24" fill="white" transform="matrix(-1 0 0 1 24 0)"/>
</clipPath>
<clipPath id="clip1_1_495">
<rect width="24" height="24" fill="white" transform="translate(54)"/>
</clipPath>
</defs>
</svg>
